<svg width="512" height="512" viewBox="0 0 512 512" fill="none" xmlns="http://www.w3.org/2000/svg">
<g clip-path="url(#clip0_5_5)">
<path d="M231.34 0.561435C214.849 2.56181 205.293 4.20315 193.323 7.22938C149.243 18.3084 108.966 40.9794 76.2913 73.1394C69.2531 80.064 66.1706 83.4493 58.978 91.8098C51.0152 101.094 38.7878 118.892 32.3661 130.484C19.9847 153.001 10.9942 176.493 5.80534 200.241C5.49709 201.626 5.03473 203.729 4.77786 204.857C4.36685 206.858 3.75035 210.243 2.77422 216.244C2.46598 217.885 2.05499 221.168 1.74674 223.579C1.43849 225.99 0.924744 230.247 0.616496 233.068C-0.205499 239.787 -0.205499 271.178 0.616496 278.717C2.51736 295.849 3.69897 302.825 7.14107 316.931C10.7887 331.753 14.3849 342.73 20.0875 356.168C23.2727 363.812 31.2873 379.712 35.0374 385.917C47.7786 407.05 59.5433 422.077 76.1372 438.492C115.285 477.166 165.632 502.095 219.781 509.686C234.834 511.839 238.584 512.043 256.256 511.992C280.197 511.992 294.789 510.3 316.365 505.172C372.055 491.835 423.841 458.24 458.877 412.641C465.969 403.407 474.547 390.482 479.634 381.302C488.829 364.58 496.484 346.475 501.571 329.239C502.188 327.137 502.907 324.828 503.112 324.111C504.036 321.393 507.223 307.287 508.198 301.645C509.791 292.516 510.203 289.643 511.383 278.717C512.205 271.229 512.205 241.018 511.383 233.068C510.459 223.835 508.557 211.115 507.223 204.857C505.836 198.395 503.677 189.316 503.112 187.675C502.907 186.956 502.188 184.648 501.571 182.545C497.462 168.44 492.426 155.72 485.286 141.512C479.429 129.869 478.659 128.535 472.338 118.43C457.493 94.7847 438.175 73.2935 415.621 55.2898C407.145 48.5194 390.395 37.2352 381.353 32.1572C362.962 21.8989 342.822 13.6922 323.3 8.46041C308.298 4.40834 297.766 2.45924 281.172 0.715311C273.313 -0.156653 238.019 -0.259237 231.34 0.561435ZM409.147 91.1431C407.916 92.1689 404.677 94.8874 401.956 97.1443C399.232 99.4524 389.985 107.146 381.353 114.378C372.723 121.559 355.052 136.331 342.052 147.154C329.055 158.028 310.456 173.518 300.695 181.673C290.934 189.829 262.884 213.269 238.276 233.735C213.719 254.2 191.525 272.717 189.059 274.819L184.538 278.615L180.993 276.101C134.396 243.224 99.1532 218.347 76.4454 202.293C60.8791 191.265 47.573 181.93 46.8536 181.468C46.1857 181.007 45.7234 180.494 45.8775 180.34C46.2372 179.981 409.147 89.3478 410.381 89.2966C411.151 89.2451 410.895 89.7067 409.147 91.1431ZM411.922 90.3224C411.82 90.6813 411.151 92.8355 410.483 95.0924C409.764 97.3493 408.325 101.966 407.299 105.351C406.272 108.736 404.884 113.25 404.216 115.353C403.548 117.456 402.161 121.969 401.134 125.355C400.105 128.74 398.72 133.254 398.052 135.357C397.384 137.46 395.996 141.973 394.97 145.359C393.94 148.744 392.553 153.258 391.885 155.36C391.219 157.464 389.832 161.977 388.803 165.362C387.776 168.748 386.388 173.262 385.72 175.364C385.052 177.467 383.667 181.981 382.638 185.366C381.612 188.752 380.224 193.265 379.556 195.368C378.888 197.471 377.5 201.985 376.474 205.37C375.447 208.755 373.443 215.116 372.106 219.475C370.719 223.835 368.561 231.016 367.227 235.376C365.942 239.736 364.554 244.25 364.145 245.378C363.784 246.506 362.396 251.02 361.062 255.38C359.777 259.74 358.39 264.253 357.978 265.382C357.619 266.511 356.232 271.025 354.895 275.384C353.562 279.744 351.916 285.079 351.25 287.181C349.501 292.823 345.393 306.004 344.52 308.979C344.108 310.364 343.235 313.288 342.566 315.392C341.898 317.494 339.689 324.675 337.684 331.292C335.631 337.91 332.856 346.936 331.52 351.296C330.186 355.656 327.411 364.682 325.356 371.3C323.3 377.917 320.527 386.944 319.191 391.304C317.855 395.663 315.08 404.69 313.027 411.307C310.971 417.925 307.633 428.797 305.577 435.415C303.521 442.03 300.746 451.059 299.412 455.419C298.076 459.779 296.433 464.96 295.816 466.959C295.199 468.907 294.479 471.319 294.275 472.243C293.606 475.423 295.045 477.729 274.237 440.031C263.654 420.797 238.378 375.301 215.671 334.625C210.945 326.162 202.108 310.262 196.046 299.233L184.949 279.281L187.209 277.281C188.442 276.152 212.126 256.404 239.817 233.324C267.507 210.243 304.394 179.519 321.759 165.003C339.123 150.488 366.559 127.612 382.638 114.173C398.771 100.735 411.973 89.7067 412.024 89.7067C412.076 89.7067 412.076 90.0147 411.922 90.3224ZM97.8688 218.193C125.046 237.377 155.614 258.97 165.735 266.15L184.178 279.229L198.409 304.875C206.218 318.981 223.634 350.269 237.094 374.377C250.503 398.484 265.4 425.259 270.129 433.876C274.854 442.493 280.865 453.315 283.487 457.984C286.106 462.651 288.724 467.471 289.341 468.754L290.473 471.063L288.778 469.268C287.852 468.242 282.355 461.778 276.549 454.904C270.746 447.982 256.668 431.26 245.263 417.718C214.13 380.841 183.356 344.371 158.953 315.392C146.931 301.133 132.958 284.513 127.82 278.461C122.683 272.41 110.456 257.841 100.592 246.147C90.7277 234.453 79.0656 220.604 74.6473 215.372C70.2292 210.14 62.8311 201.369 58.2075 195.881C53.5839 190.393 49.217 185.212 48.4977 184.392C47.7786 183.571 47.4189 183.007 47.7786 183.11C48.138 183.212 70.6401 199.01 97.8688 218.193Z" fill="black"/>
</g>
<defs>
<clipPath id="clip0_5_5">
<rect width="512" height="512" fill="white"/>
</clipPath>
</defs>
</svg>
